<svg width="36" height="36" viewBox="0 0 36 36" fill="none" xmlns="http://www.w3.org/2000/svg">
<path fill-rule="evenodd" clip-rule="evenodd" d="M0 18C0 8.05887 8.05887 0 18 0C27.9411 0 36 8.05887 36 18C36 27.9411 27.9411 36 18 36C8.05887 36 0 27.9411 0 18ZM20.6687 14.0024H25.7532V12.5457H20.6687V14.0024ZM25.305 15.2252C24.6932 14.9546 24.0057 14.8187 23.2414 14.8187C21.9556 14.8187 20.9114 15.2208 20.1043 16.0193C19.2994 16.82 18.8964 17.9705 18.8964 19.4706C18.8964 21.0699 19.3411 22.2259 20.2363 22.9353C21.127 23.6458 22.1577 24 23.3261 24C24.7406 24 25.8413 23.579 26.627 22.7382C27.1304 22.2081 27.4149 21.6858 27.477 21.1735H25.1346C24.9991 21.4274 24.8411 21.6256 24.6616 21.7693C24.3353 22.0332 23.9097 22.1658 23.3893 22.1658C22.8949 22.1658 22.4738 22.0566 22.1238 21.8394C21.5459 21.4909 21.2433 20.8817 21.2049 20.0141H27.5978C27.608 19.2668 27.5831 18.6922 27.521 18.2957C27.4149 17.6174 27.1824 17.0205 26.82 16.506C26.4226 15.9224 25.918 15.4948 25.305 15.2252ZM17.2087 13.2473C16.6047 12.4366 15.5808 12.0212 14.1336 12H8.4V23.7049H13.7464C14.3492 23.7049 14.9069 23.6536 15.4228 23.5478C15.9387 23.4409 16.3846 23.246 16.7628 22.9598C17.0992 22.7103 17.3791 22.403 17.6027 22.0388C17.956 21.4886 18.1321 20.8661 18.1321 20.1723C18.1321 19.4996 17.9774 18.9271 17.6704 18.4572C17.3599 17.9861 16.9039 17.6419 16.2988 17.4237C16.6973 17.2232 16.9987 17.0005 17.2042 16.7577C17.5711 16.3233 17.7528 15.7476 17.7528 15.0337C17.7528 14.3399 17.571 13.7452 17.2087 13.2473Z" fill="white"/>
<path fill-rule="evenodd" clip-rule="evenodd" d="M10.765 14.0325H13.3479C13.9157 14.0325 14.3831 14.0937 14.7511 14.2151C15.1756 14.3911 15.3878 14.7508 15.3878 15.2976C15.3878 15.7877 15.2264 16.1307 14.9058 16.3245C14.5829 16.5182 14.1641 16.6151 13.6504 16.6151H10.765V14.0325ZM21.8732 17.1809C22.1972 16.8512 22.6555 16.6864 23.2426 16.6864C23.7844 16.6864 24.2371 16.8412 24.6051 17.1519C24.9686 17.4649 25.1741 17.9193 25.2159 18.5206H21.2614C21.3449 17.9571 21.5492 17.5105 21.8732 17.1809ZM10.765 18.5518H13.6866C14.1946 18.5563 14.5908 18.6231 14.873 18.7501C15.3776 18.9784 15.6282 19.396 15.6282 20.0063C15.6282 20.7258 15.3686 21.2113 14.8482 21.4675C14.5626 21.6045 14.1607 21.6735 13.6459 21.6735H10.765V18.5518Z" fill="white"/>
</svg>
