<svg width="36" height="36" viewBox="0 0 36 36" fill="none" xmlns="http://www.w3.org/2000/svg">
<path fill-rule="evenodd" clip-rule="evenodd" d="M0 18C0 8.05887 8.05887 0 18 0C27.9411 0 36 8.05887 36 18C36 27.9411 27.9411 36 18 36C8.05887 36 0 27.9411 0 18ZM12.7204 14.9084H8.64121V27.1647H12.7204V14.9084ZM12.9891 11.117C12.9626 9.9153 12.1032 9 10.7078 9C9.31231 9 8.4 9.9153 8.4 11.117C8.4 12.2939 9.28534 13.2355 10.6548 13.2355H10.6809C12.1032 13.2355 12.9891 12.2939 12.9891 11.117ZM27.4315 20.1373C27.4315 16.3727 25.4192 14.6206 22.7349 14.6206C20.5691 14.6206 19.5994 15.8102 19.058 16.6447V14.9087H14.9783C15.0321 16.0588 14.9783 27.165 14.9783 27.165H19.058V20.3201C19.058 19.9538 19.0845 19.5884 19.1923 19.3261C19.4872 18.5943 20.1584 17.8367 21.2854 17.8367C22.7621 17.8367 23.3523 18.9605 23.3523 20.6076V27.1647H27.4314L27.4315 20.1373Z" fill="white"/>
</svg>
